<?xml version="1.0" encoding="utf-8"?>
<!-- Generator: Adobe Illustrator 19.2.1, SVG Export Plug-In . SVG Version: 6.00 Build 0)  -->
<svg version="1.1" id="Layer_1" xmlns="http://www.w3.org/2000/svg" xmlns:xlink="http://www.w3.org/1999/xlink" x="0px" y="0px"
	 viewBox="0 0 718.8 87.4" style="enable-background:new 0 0 718.8 87.4;" xml:space="preserve">
<style type="text/css">
	.st0{fill:#26314F;}
</style>
<g>
	<g>
		<path class="st0" d="M68.8,87.4H38.5c-3.5,0-9.9,0-15.2-5.3c-2.9-3-5.1-7.1-6.5-12.5c-5.2-0.2-9.5-1.6-12.4-4.2
			C1.5,62.8,0,59.2,0,54.7c0-8.6,0.4-17.9,0.5-18.9c0-4.8,1.1-9.5,3.1-14c2-4.3,4.8-8.1,8.3-11.4c3.5-3.3,7.6-5.9,12.1-7.7
			C28.7,1,33.6,0,38.5,0h30.3c5,0,9.8,1,14.3,2.8c4.4,1.8,8.3,4.4,11.7,7.7c3.4,3.3,6,7.1,7.9,11.4c1.9,4.4,2.9,9.1,2.9,14v15.5
			c0,10.2-3.1,18.9-9,25.3c-3.2,3.4-7.1,6.1-11.7,7.9C80.3,86.5,74.8,87.4,68.8,87.4z M24.2,69.2c1.1,3.5,2.5,6.2,4.3,8.1
			c2.9,2.9,6.2,3.2,10,3.2h30.3c5.1,0,9.6-0.8,13.5-2.3c3.6-1.4,6.6-3.4,9-6.1c4.6-5,7.1-12.1,7.1-20.6V36c0-7.7-3.1-14.9-8.7-20.4
			C84.1,10,76.7,7,68.8,7H38.5c-4,0-7.9,0.8-11.7,2.3c-3.7,1.5-7,3.6-9.9,6.3C11,21.1,7.7,28.4,7.7,36c0,0.1,0,0.1,0,0.2
			c0,0.1-0.5,9.8-0.5,18.6c0,2.4,0.7,4.2,2.1,5.4c1.4,1.2,3.6,2,6.3,2.3c-0.4-3.5-0.7-7.4-0.7-11.7V38.4c0-5.8,2.3-11.4,6.6-15.5
			c4.3-4.2,9.9-6.4,15.9-6.4h30.2c6,0,11.6,2.3,15.9,6.4C87.7,27,90,32.5,90,38.4v12.3c0,5.3-0.5,10.9-3.8,15.2
			c-3.5,4.6-9.6,6.8-18.6,6.8c-0.6,0-2.6,0.1-5.2-0.2c-4.1-0.6-7.4-1.9-9.8-4.1c-2.6-2.3-3.9-5.5-3.9-9.3v-2.3
			c0-1.9,1.6-3.5,3.6-3.5c2,0,3.6,1.6,3.6,3.5v2.3c0,1.8,0.5,3.1,1.6,4.1c2.6,2.4,7.9,2.6,9.7,2.5c0.1,0,0.2,0,0.3,0
			c6.6,0,10.9-1.3,13-4c2-2.6,2.3-6.8,2.3-10.9V38.4c0-4-1.6-7.7-4.5-10.5c-2.9-2.8-6.7-4.4-10.8-4.4H37.4c-4.1,0-7.9,1.6-10.8,4.4
			c-2.9,2.8-4.5,6.6-4.5,10.5v12.3c0,4.3,0.2,8.1,0.7,11.6c3.9-0.4,6.5-1.4,7.8-2.8c1-1.1,1.2-2.8,1.2-4.8V41.3
			c0-0.4-0.1-1.5,0.1-2.8c0.4-3.5,2.2-5,3.6-5.6c1.1-0.5,3-0.9,5.6,0.3c1.5,0.7,3.2,2,5.1,3.9l5,4.9c0.1,0.1,0.1,0.1,0.1,0.1
			c0.1,0.1,0.3,0.2,0.6,0.3c0.5,0.1,1.2-0.3,1.7-0.7c3.3-2.6,6.1-5.2,6.5-5.6c0.3-0.3,1.4-1.4,2.7-2.5c1.8-1.5,4.6-3.3,7.4-2.3
			c1.2,0.4,3.2,1.7,3.2,5.3v18.2c0,1.9-1.6,3.5-3.6,3.5c-2,0-3.6-1.6-3.6-3.5V40.1c-0.2,0.2-0.5,0.5-0.7,0.7c0,0-0.1,0.1-0.1,0.1
			c-0.1,0.1-3.2,3.2-7.1,6.2c-3.6,2.8-6.9,2.4-8.6,1.8c-1.9-0.6-3.1-1.7-3.5-2.1L41,42c-0.9-0.8-1.5-1.4-2.1-1.8c0,0.2,0,0.4,0,0.6
			c0,0.1,0,0.2,0,0.3v13.5c0,3-0.4,6.5-3,9.5C33.6,66.8,29.7,68.5,24.2,69.2z"/>
	</g>
	<g>
		<path class="st0" d="M153,61.3V23.2h8.3l11.8,29.5l11.7-29.5h8.3v38.1h-5.6l0.2-32.1l-12.6,32.1h-4l-12.6-32.1l0.2,32.1H153z"/>
		<path class="st0" d="M220.9,61.3h-6.6l15.6-38.1h5.5l15.4,38.1h-6.6l-3.6-9h-16.3L220.9,61.3z M232.4,30.2L226,47.4h13L232.4,30.2
			z"/>
		<path class="st0" d="M271.7,23.2h10.8c6,0,9.1,0.8,11.1,2.2c3.1,2.1,5,6,5,10.3c0,2.7-0.8,5.2-2.2,7.3c-2,2.7-4.4,3.7-7.4,4.2
			l9,14.2h-6.4l-10.4-17.2h1.3c2.6,0,5.8-0.1,7.6-1.6c1.7-1.5,2.6-3.8,2.6-6.2c0-2.6-1.2-5.1-3.2-6.4c-1.6-1-3.8-1.2-6.5-1.2h-5.2
			v32.7h-6.1V23.2z"/>
		<path class="st0" d="M356.5,49.7c-2.4,6.9-9.4,12.3-18.1,12.3c-11.5,0-19.9-9-19.9-19.8c0-10.4,8.1-19.7,19.9-19.7
			c10.2,0.1,16.3,7.3,18.2,12.5h-6.4c-1.2-2.5-5.1-7.1-11.8-7.2c-8.1,0-13.7,6.6-13.7,14.4c0,7.9,5.8,14.5,13.8,14.5
			c7.4,0,10.9-5.6,11.7-6.9H356.5z"/>
		<path class="st0" d="M384.9,23.2v23.8c0,2.4,0,4.4,1.4,6.6c1.1,1.8,3.2,3,5.9,3c2.6,0,4.7-1.2,5.8-2.9c1.4-2.2,1.4-4.3,1.4-6.7
			V23.2h6v23.8c0.1,5-0.8,8.9-4.1,11.7c-2.3,2.1-5.3,3.3-9.1,3.3c-2.7,0-6.6-0.8-9.2-3.3c-3.8-3.3-4.2-7.1-4.2-11.7V23.2H384.9z"/>
		<path class="st0" d="M433.8,50c0.4,5.7,4.4,6.8,6.4,6.8c3.4,0,6.3-2.7,6.3-6.1c0-4.2-3.6-5.2-8.5-7c-3-1-9.6-3.2-9.6-10.3
			c-0.1-7.1,6-11,12-11c4.9,0,11,2.7,11.5,10.5h-6c-0.4-2.1-1.3-5.4-5.7-5.4c-3.1,0-5.8,2.1-5.8,5.4c0,3.7,2.8,4.6,9,6.9
			c4.7,2,9.2,4.4,9.2,10.6S448.4,62,440.2,62c-7.6,0-12.4-4.6-12.5-12H433.8z"/>
		<path class="st0" d="M510,48c0,3.4-0.2,5.9-1.1,7.8c-0.7,1.5-2,3-3.5,4c-2.1,1.4-4.6,2.1-6.9,2.1c-2.2,0-9.5-1-11.1-8.5
			c-0.2-0.7-0.2-1.4-0.3-2.2h6.5c0,0.3,0.1,0.6,0.1,0.9c0.8,3.2,3.2,4.5,5,4.5c2.6-0.1,4.1-1.5,4.6-3c0.5-1.3,0.6-2.8,0.6-4.3V23.2
			h6V48z"/>
		<path class="st0" d="M535.8,61.3h-6.6l15.6-38.1h5.5l15.4,38.1h-6.6l-3.6-9h-16.3L535.8,61.3z M547.3,30.2l-6.4,17.1h13
			L547.3,30.2z"/>
		<path class="st0" d="M586.8,61.3V23.2h8.3l11.8,29.5l11.7-29.5h8.3v38.1h-5.6l0.2-32.1l-12.6,32.1h-4l-12.6-32.1l0.2,32.1H586.8z"
			/>
		<path class="st0" d="M651.2,23.2h21.3v5.4h-15.2v10.8h15v5.3h-15v11.3h15.2v5.4h-21.3V23.2z"/>
		<path class="st0" d="M700,50c0.4,5.7,4.4,6.8,6.4,6.8c3.4,0,6.3-2.7,6.3-6.1c0-4.2-3.6-5.2-8.5-7c-3-1-9.6-3.2-9.6-10.3
			c-0.1-7.1,6-11,12-11c4.9,0,11,2.7,11.5,10.5h-6c-0.4-2.1-1.3-5.4-5.7-5.4c-3.1,0-5.8,2.1-5.8,5.4c0,3.7,2.8,4.6,9,6.9
			c4.7,2,9.2,4.4,9.2,10.6S714.6,62,706.5,62c-7.6,0-12.4-4.6-12.5-12H700z"/>
	</g>
</g>
</svg>
